<?xml version="1.0" encoding="utf-8"?>
<!-- Generator: Adobe Illustrator 27.5.0, SVG Export Plug-In . SVG Version: 6.00 Build 0)  -->
<svg version="1.1" id="Layer_1" xmlns="http://www.w3.org/2000/svg" xmlns:xlink="http://www.w3.org/1999/xlink" x="0px" y="0px"
	 viewBox="0 0 640 480" style="enable-background:new 0 0 640 480;" xml:space="preserve">
<style type="text/css">
	.st0{fill:#231F20;stroke:#231F20;stroke-miterlimit:10;}
</style>
<path class="st0" d="M424.7,135.42c0-5.5-47.1-9.9-105.1-9.9s-105.1,4.4-105.1,9.9c-5.5,0-9.9,47.1-9.9,105.1
	c0,58.1,4.4,105.1,9.9,105.1l0,0c0.1,5.5,47.1,9.9,105.1,9.9s105.1-4.4,105.1-9.9l0,0c5.5,0,9.9-47.1,9.9-105.1
	C434.7,182.52,430.2,135.42,424.7,135.42z M415.7,283.32L415.7,283.32L415.7,283.32c-0.7,1.5-1.3,2.9-2,4.3c0,0,0,0.1-0.1,0.1
	c-0.7,1.4-1.4,2.8-2.2,4.2c0,0,0,0.1-0.1,0.1c-0.8,1.4-1.6,2.7-2.4,4.1v0.1c-18.6,29.7-51.6,49.5-89.2,49.5
	c-15.2,0-29.7-3.2-42.8-9.1l0,0l0,0c-1.5-0.7-2.9-1.3-4.3-2c0,0-0.1,0-0.1-0.1c-1.4-0.7-2.8-1.4-4.2-2.2c0,0-0.1,0-0.1-0.1
	c-1.4-0.8-2.7-1.6-4.1-2.4H264c-29.7-18.6-49.5-51.6-49.5-89.2c0-58.1,47.1-105.1,105.1-105.1c39.4,0,73.7,21.7,91.7,53.7l0,0
	c8.5,15.2,13.4,32.7,13.4,51.4C424.7,255.82,421.5,270.32,415.7,283.32z"/>
</svg>
