<?xml version="1.0" encoding="utf-8"?>
<!-- Generator: Adobe Illustrator 27.5.0, SVG Export Plug-In . SVG Version: 6.00 Build 0)  -->
<svg version="1.1" id="Layer_1" xmlns="http://www.w3.org/2000/svg" xmlns:xlink="http://www.w3.org/1999/xlink" x="0px" y="0px"
	 viewBox="0 0 640 480" style="enable-background:new 0 0 640 480;" xml:space="preserve">
<style type="text/css">
	.st0{fill:#231F20;stroke:#231F20;stroke-miterlimit:10;}
</style>
<path class="st0" d="M425.1,110.6c0-5.5-47.1-9.9-105.1-9.9s-105.1,4.4-105.1,9.9c-5.5,0-9.9,47.1-9.9,105.1
	c0,58.1,4.4,105.1,9.9,105.1l0,0c0.1,5.5,47.1,9.9,105.1,9.9s105.1-4.4,105.1-9.9l0,0c5.5,0,9.9-47.1,9.9-105.1
	C435.1,157.7,430.6,110.6,425.1,110.6z M416.1,258.5L416.1,258.5L416.1,258.5c-0.7,1.5-1.3,2.9-2,4.3c0,0,0,0.1-0.1,0.1
	c-0.7,1.4-1.4,2.8-2.2,4.2c0,0,0,0.1-0.1,0.1c-0.8,1.4-1.6,2.7-2.4,4.1v0.1c-18.6,29.7-51.6,49.5-89.2,49.5
	c-15.2,0-29.7-3.2-42.8-9.1l0,0l0,0c-1.5-0.7-2.9-1.3-4.3-2c0,0-0.1,0-0.1-0.1c-1.4-0.7-2.8-1.4-4.2-2.2c0,0-0.1,0-0.1-0.1
	c-1.4-0.8-2.7-1.6-4.1-2.4h-0.1c-29.7-18.6-49.5-51.6-49.5-89.2c0-58.1,47.1-105.1,105.1-105.1c39.4,0,73.7,21.7,91.7,53.7l0,0
	c8.5,15.2,13.4,32.7,13.4,51.4C425.1,231,421.9,245.5,416.1,258.5z"/>
<g>
	<path d="M250.8,367.4c-0.4-1.9-4.7-16.7-6.5-22.9H242c-1.9,6.6-6.3,20.6-6.8,22.9c-0.6-2.9-4.7-16.9-6.5-22.9h-2.2l7.5,25.2h2.2
		c1.9-6.3,6.1-19.4,6.8-22.7c0.4,2.2,4.6,16.8,6.4,22.7h2.4l8.3-25.2H258C256.2,350.5,251.6,363.8,250.8,367.4z"/>
	<path d="M271.4,351.3c-5.6,0-8.6,4.3-8.6,9.4c0,5.4,3.3,9.4,8.5,9.4c5.7,0,8.7-4.5,8.7-9.5C280,355,276.7,351.2,271.4,351.3z
		 M271.5,368.4c-4.1,0-6.6-3.4-6.6-7.7c0-4.3,2.1-7.8,6.5-7.7c4.3,0,6.6,3.5,6.6,7.7C278,365.2,275.7,368.4,271.5,368.4z"/>
	<path d="M286.8,355.7c0-2.3-0.1-3.4-0.1-4h-1.9c0,0.6,0,1.9,0,4.9h0.1v13h1.9v-9.4c0-4.3,2.7-6.8,6.7-7.1v-1.9
		C290.4,351.4,287.9,353,286.8,355.7z"/>
	<rect x="297.3" y="343.2" width="1.9" height="26.5"/>
	<path d="M318.5,354c-0.6-1.2-2.1-2.7-6-2.7c-5.2,0-8.5,4.1-8.5,9.6c0,5.4,3,9.2,8,9.2c3.4,0,5.5-1.3,6.5-3.5c0,0.9,0,2.6,0.1,3h1.9
		c0-1.8,0-3.5,0-5.2v-21.2h-2V354z M312.2,368.4c-3.4,0-6.1-2.7-6.1-7.6c0-5,2.6-7.9,6.5-7.9c4.9,0,6.1,2.7,6.1,7.3
		C318.7,365.1,317.3,368.4,312.2,368.4z"/>
	<path d="M332.5,359.1c-3.8-0.8-4.7-1.6-4.7-3.3c0-1.5,0.9-3,4.3-3c3.3,0,4.6,1.9,4.9,3.4h1.9c-0.4-2.5-2.4-5-6.8-5
		c-4.4,0-6.4,2.3-6.4,4.8c0,2.4,1.2,3.8,6.2,4.9c4.3,0.9,5.2,1.9,5.2,4c0,2-1.4,3.5-4.8,3.5c-3.1,0-4.8-1.4-5.5-3.7v-0.1H325
		c0.5,3.2,3,5.4,7.4,5.4c4,0,6.9-2,6.9-5.3C339.3,362,337.9,360.3,332.5,359.1z"/>
	<path d="M363.7,351.3c-3.4,0-5.3,1.7-6.3,3.6c-0.8-2.3-2.9-3.6-5.6-3.6c-3.2,0-5,1.8-5.8,3.6c0-1-0.1-2.6-0.1-3.2H344
		c0,1.4,0,3.1,0,4.6v13.4h2.1v-9.9c0-3.7,1.9-6.8,5.6-6.8c3.6,0,4.4,2.5,4.4,5.1v11.6h1.9v-10.4c0-3.5,1.7-6.3,5.4-6.3
		c3.6,0,4.5,2.6,4.5,5v11.7h1.9v-11.8C369.8,352.9,366.7,351.3,363.7,351.3z"/>
	<rect x="376" y="351.7" width="1.9" height="18"/>
	<rect x="376" y="343.1" width="1.9" height="3.5"/>
	<path d="M386.8,346.1h-1.9v5.6h-3.6h-0.1v1.8h3.6V366c0,2.8,1.4,4,3.9,4c0.8,0,1.7,0,2.4-0.3v-1.6c-0.6,0.2-1.4,0.2-2,0.2
		c-1.8,0-2.3-1.2-2.3-3.2v-11.7h4.6v-1.7h-4.6V346.1z"/>
	<path d="M403.7,351.2c-3.4,0-5.3,1.6-6.4,3.5v-11.6V343h-1.8v26.5h1.9v-10c0-4.4,2.2-6.6,6-6.6c3.2,0,4.9,2,4.9,5.6v11.1h1.9v-11.4
		C410.2,352.5,406.4,351.2,403.7,351.2z"/>
</g>
</svg>
