<?xml version="1.0" standalone="no"?>
<!DOCTYPE svg PUBLIC "-//W3C//DTD SVG 20010904//EN"
 "http://www.w3.org/TR/2001/REC-SVG-20010904/DTD/svg10.dtd">
<svg version="1.0" xmlns="http://www.w3.org/2000/svg"
 width="1280.000000pt" height="1280.000000pt" viewBox="0 0 1280.000000 1280.000000"
 preserveAspectRatio="xMidYMid meet">
<metadata>
Created by potrace 1.14, written by Peter Selinger 2001-2017
</metadata>
<g transform="translate(0.000000,1280.000000) scale(0.100000,-0.100000)"
fill="#000000" stroke="none">
<path d="M6448 8705 c-2 -2 -177 -7 -388 -10 -212 -3 -425 -8 -475 -10 -49 -2
-144 -7 -210 -9 -66 -3 -145 -8 -175 -11 -30 -2 -93 -7 -140 -10 -91 -7 -118
-9 -220 -19 -98 -11 -160 -19 -240 -32 -35 -5 -87 -13 -125 -19 -11 -2 -20 -4
-20 -5 0 -1 -11 -3 -25 -6 -55 -9 -131 -48 -160 -80 -24 -28 -55 -103 -66
-159 -1 -5 -7 -35 -13 -65 -27 -136 -60 -432 -65 -592 0 -21 -3 -38 -6 -38 -3
0 -5 -26 -6 -58 0 -31 -4 -109 -7 -172 -8 -141 -20 -545 -21 -697 -1 -64 -5
-113 -10 -113 -6 0 -5 -5 2 -12 7 -7 8 -17 1 -30 -5 -10 -6 -18 -2 -18 10 0 9
-253 -1 -269 -4 -6 -4 -11 1 -11 12 0 10 -104 -2 -112 -6 -5 -6 -8 0 -8 6 0
10 -50 11 -128 1 -149 13 -509 19 -602 3 -36 7 -110 10 -165 11 -209 15 -253
41 -490 2 -22 6 -58 8 -80 2 -22 7 -56 11 -75 3 -19 8 -48 11 -65 7 -49 25
-122 45 -185 13 -40 63 -96 99 -112 29 -13 25 -12 70 -22 19 -5 39 -11 44 -14
5 -3 23 -6 40 -8 17 -2 42 -6 56 -9 14 -3 41 -8 60 -10 77 -12 116 -17 130
-20 8 -1 49 -6 90 -9 41 -4 91 -9 110 -11 72 -7 197 -17 260 -21 300 -17 460
-24 722 -28 125 -2 231 -7 236 -10 6 -3 13 0 15 6 4 10 6 10 6 0 1 -9 6 -10
20 -2 13 7 22 7 26 0 4 -6 13 -7 24 -1 9 5 23 6 31 1 7 -4 23 -5 35 0 12 4 29
4 38 -1 11 -7 17 -6 17 1 0 8 6 8 20 0 14 -8 20 -8 20 0 0 6 5 8 11 5 18 -12
69 -12 69 -1 0 7 3 6 8 -1 5 -8 13 -9 22 -3 9 5 19 5 26 -1 8 -7 14 -6 19 1 4
7 12 7 25 0 10 -6 21 -6 24 -2 6 9 59 7 75 -3 6 -3 11 -3 11 2 0 4 82 9 183
10 246 3 482 12 712 27 33 3 98 7 145 10 47 4 105 8 130 11 87 9 155 16 180
20 14 2 48 7 75 10 127 14 304 53 346 76 34 18 71 61 90 105 10 24 16 44 13
44 -2 0 0 8 5 18 5 10 12 38 16 62 4 25 8 47 10 50 2 3 6 26 9 50 3 25 8 56
10 70 10 59 18 128 22 190 3 36 6 79 9 95 6 45 19 222 31 415 7 120 17 435 18
562 1 65 3 118 6 118 6 0 3 677 -3 744 -2 25 0 46 5 46 5 0 6 5 2 11 -3 6 -8
77 -10 157 -7 265 -12 383 -17 388 -3 3 -1 18 3 34 4 16 6 31 3 34 -3 3 -7 25
-9 48 -4 50 -13 187 -19 273 -2 33 -4 60 -5 60 -1 0 -3 25 -5 55 -5 63 -8 93
-30 274 -24 192 -68 330 -118 367 -37 28 -77 50 -77 43 0 -3 -8 0 -18 5 -18
10 -40 15 -111 27 -18 3 -43 8 -55 11 -24 5 -65 11 -116 17 -19 2 -53 7 -75
10 -43 6 -139 16 -195 21 -19 1 -71 6 -115 9 -158 13 -202 16 -335 22 -74 3
-169 7 -210 9 -41 2 -221 7 -399 10 -179 3 -328 8 -332 10 -3 3 -8 3 -11 0z
m187 -238 c11 -3 40 -8 65 -11 25 -3 56 -8 70 -11 14 -3 39 -8 55 -10 65 -12
263 -70 320 -95 11 -5 49 -21 85 -37 36 -15 101 -47 144 -70 44 -24 83 -43 88
-43 4 0 8 -4 8 -10 0 -5 5 -10 11 -10 12 0 103 -60 107 -72 2 -4 8 -8 14 -8
23 0 210 -161 319 -275 91 -95 269 -336 269 -364 0 -5 4 -11 8 -13 9 -3 132
-250 136 -271 1 -7 8 -23 16 -37 7 -14 13 -26 12 -27 -1 -2 0 -8 3 -15 35
-105 79 -279 90 -358 3 -25 8 -52 11 -61 5 -17 14 -156 18 -274 1 -38 -2 -76
-7 -82 -6 -9 -5 -13 2 -13 7 0 10 -4 7 -8 -3 -5 -8 -44 -11 -86 -4 -42 -8 -85
-10 -95 -2 -10 -6 -42 -10 -72 -4 -30 -9 -57 -11 -60 -2 -3 -6 -21 -9 -40 -9
-49 -23 -103 -53 -194 -14 -44 -27 -82 -27 -85 -8 -27 -83 -194 -108 -240 -14
-25 -38 -67 -52 -95 -15 -27 -43 -71 -61 -98 -19 -26 -34 -52 -34 -57 0 -6 -4
-10 -9 -10 -4 0 -27 -27 -50 -60 -44 -62 -251 -277 -309 -320 -19 -14 -39 -29
-45 -35 -48 -41 -155 -115 -167 -115 -4 0 -10 -4 -12 -8 -10 -25 -343 -189
-418 -207 -8 -2 -27 -8 -42 -14 -33 -13 -197 -56 -253 -66 -45 -9 -49 -10
-125 -19 -30 -4 -73 -9 -95 -12 -56 -8 -309 -8 -375 0 -105 13 -135 18 -210
33 -41 8 -85 15 -97 16 -13 1 -23 5 -23 9 0 4 -8 8 -19 8 -24 0 -203 59 -215
71 -6 5 -20 9 -33 9 -13 0 -23 5 -23 10 0 6 -7 10 -15 10 -8 0 -30 9 -50 20
-20 11 -42 20 -50 20 -8 0 -15 3 -15 8 0 4 -17 15 -37 25 -21 9 -56 28 -78 42
-22 13 -53 32 -70 41 -50 29 -205 145 -205 155 0 5 -5 9 -11 9 -9 0 -37 24
-153 136 -23 22 -116 129 -166 191 -101 125 -260 417 -300 551 -7 23 -17 42
-22 42 -5 0 -7 4 -4 9 3 5 -3 35 -14 67 -11 32 -22 67 -24 79 -3 11 -11 54
-20 95 -35 173 -39 207 -40 410 -2 290 28 473 120 732 32 91 145 328 156 328
4 0 8 6 8 14 0 8 7 21 15 30 9 8 15 17 13 18 -2 3 81 129 91 138 4 3 19 23 36
45 16 22 34 46 40 53 23 30 253 258 274 272 13 8 35 25 49 38 15 12 52 39 82
60 30 20 57 40 60 43 3 3 35 23 72 43 37 21 70 42 74 47 3 5 11 9 19 9 8 0 37
13 65 30 27 16 50 27 50 25 0 -3 17 3 38 14 33 17 203 78 236 86 6 1 18 5 26
8 14 6 28 9 95 22 34 7 60 13 60 15 0 1 11 3 25 5 14 2 39 6 55 9 17 3 62 9
100 12 39 3 71 7 73 9 5 4 376 -3 397 -8z"/>
</g>
</svg>
